<svg width="21" height="21" viewBox="0 0 21 21" fill="none" xmlns="http://www.w3.org/2000/svg">
<path d="M20.3438 3.28064H11.1562C10.794 3.28064 10.5 3.57464 10.5 3.93689C10.5 4.29914 10.794 4.59314 11.1562 4.59314H19.6875V16.4056H11.1562C10.794 16.4056 10.5 16.6996 10.5 17.0619C10.5 17.4241 10.794 17.7181 11.1562 17.7181H20.3438C20.706 17.7181 21 17.4241 21 17.0619V3.93689C21 3.57464 20.706 3.28064 20.3438 3.28064Z" fill="#F3B552"/>
<path d="M13.7812 5.90564H11.1562C10.794 5.90564 10.5 6.19964 10.5 6.56189C10.5 6.92414 10.794 7.21814 11.1562 7.21814H13.7812C14.1435 7.21814 14.4375 6.92414 14.4375 6.56189C14.4375 6.19964 14.1435 5.90564 13.7812 5.90564Z" fill="#010101"/>
<path d="M13.7812 8.53064H11.1562C10.794 8.53064 10.5 8.82464 10.5 9.18689C10.5 9.54914 10.794 9.84314 11.1562 9.84314H13.7812C14.1435 9.84314 14.4375 9.54914 14.4375 9.18689C14.4375 8.82464 14.1435 8.53064 13.7812 8.53064Z" fill="#010101"/>
<path d="M13.7812 11.1556H11.1562C10.794 11.1556 10.5 11.4496 10.5 11.8119C10.5 12.1741 10.794 12.4681 11.1562 12.4681H13.7812C14.1435 12.4681 14.4375 12.1741 14.4375 11.8119C14.4375 11.4496 14.1435 11.1556 13.7812 11.1556Z" fill="#010101"/>
<path d="M13.7812 13.7806H11.1562C10.794 13.7806 10.5 14.0746 10.5 14.4369C10.5 14.7991 10.794 15.0931 11.1562 15.0931H13.7812C14.1435 15.0931 14.4375 14.7991 14.4375 14.4369C14.4375 14.0746 14.1435 13.7806 13.7812 13.7806Z" fill="#010101"/>
<path d="M17.7188 5.90564H16.4062C16.044 5.90564 15.75 6.19964 15.75 6.56189C15.75 6.92414 16.044 7.21814 16.4062 7.21814H17.7188C18.081 7.21814 18.375 6.92414 18.375 6.56189C18.375 6.19964 18.081 5.90564 17.7188 5.90564Z" fill="#010101"/>
<path d="M11.5749 0.806863C11.4253 0.683488 11.2271 0.6323 11.0355 0.667738L0.5355 2.63649C0.224437 2.69424 0 2.96461 0 3.28093V17.7184C0 18.0334 0.224437 18.3051 0.5355 18.3629L11.0355 20.3316C11.0749 20.3395 11.1169 20.3434 11.1562 20.3434C11.3072 20.3434 11.4568 20.2909 11.5749 20.1925C11.7259 20.0678 11.8125 19.8814 11.8125 19.6872V1.31218C11.8125 1.11661 11.7259 0.93155 11.5749 0.806863ZM10.5 18.8957L1.3125 17.1737V3.82561L10.5 2.10361V18.8957Z" fill="#F3B552"/>
<path d="M17.7188 8.53064H16.4062C16.044 8.53064 15.75 8.82464 15.75 9.18689C15.75 9.54914 16.044 9.84314 16.4062 9.84314H17.7188C18.081 9.84314 18.375 9.54914 18.375 9.18689C18.375 8.82464 18.081 8.53064 17.7188 8.53064Z" fill="#010101"/>
<path d="M17.7188 11.1556H16.4062C16.044 11.1556 15.75 11.4496 15.75 11.8119C15.75 12.1741 16.044 12.4681 16.4062 12.4681H17.7188C18.081 12.4681 18.375 12.1741 18.375 11.8119C18.375 11.4496 18.081 11.1556 17.7188 11.1556Z" fill="#010101"/>
<path d="M17.7188 13.7806H16.4062C16.044 13.7806 15.75 14.0746 15.75 14.4369C15.75 14.7991 16.044 15.0931 16.4062 15.0931H17.7188C18.081 15.0931 18.375 14.7991 18.375 14.4369C18.375 14.0746 18.081 13.7806 17.7188 13.7806Z" fill="#010101"/>
<path d="M9.02588 12.6926L4.43213 7.4426C4.19063 7.16828 3.77719 7.14203 3.5055 7.38091C3.2325 7.61978 3.20494 8.03453 3.44382 8.30622L8.03757 13.5562C8.1675 13.7045 8.34863 13.7807 8.53107 13.7807C8.68463 13.7807 8.83819 13.7268 8.96419 13.6179C9.23719 13.379 9.26475 12.9656 9.02588 12.6926Z" fill="#010101"/>
<path d="M8.93421 6.70118C8.64808 6.47674 8.23596 6.53055 8.01283 6.81537L3.41908 12.7216C3.19727 13.0077 3.24846 13.4212 3.53458 13.643C3.65533 13.7362 3.79708 13.7808 3.93752 13.7808C4.13177 13.7808 4.32602 13.6942 4.45465 13.5288L9.0484 7.62255C9.27152 7.33511 9.22033 6.92299 8.93421 6.70118Z" fill="#010101"/>
</svg>
