<svg width="11" height="11" viewBox="0 0 11 11" fill="none" xmlns="http://www.w3.org/2000/svg">
<path d="M5.04199 3.20866H5.95866V4.12533H5.04199V3.20866Z" fill="#F3B552"/>
<path d="M5.04199 5.04199H5.95866V7.79199H5.04199V5.04199Z" fill="#F3B552"/>
<path fill-rule="evenodd" clip-rule="evenodd" d="M0.916992 5.50033C0.916992 2.97033 2.97032 0.916992 5.50033 0.916992C8.03033 0.916992 10.0837 2.97033 10.0837 5.50033C10.0837 8.03032 8.03033 10.0837 5.50033 10.0837C2.97032 10.0837 0.916992 8.03032 0.916992 5.50033ZM1.83366 5.50033C1.83366 7.52158 3.47906 9.16699 5.50033 9.16699C7.52159 9.16699 9.16699 7.52158 9.16699 5.50033C9.16699 3.47907 7.52159 1.83366 5.50033 1.83366C3.47906 1.83366 1.83366 3.47907 1.83366 5.50033Z" fill="#F3B552"/>
</svg>
